<?xml version="1.0" encoding="UTF-8"?>
<!DOCTYPE svg PUBLIC "-//W3C//DTD SVG 1.1//EN" "http://www.w3.org/Graphics/SVG/1.1/DTD/svg11.dtd">
<!-- Creator: CorelDRAW -->
<svg xmlns="http://www.w3.org/2000/svg" xml:space="preserve" width="6.82666in" height="6.82666in" style="shape-rendering:geometricPrecision; text-rendering:geometricPrecision; image-rendering:optimizeQuality; fill-rule:evenodd; clip-rule:evenodd"
viewBox="0 0 6.82666 6.82666"
 xmlns:xlink="http://www.w3.org/1999/xlink">
 <defs>
  <style type="text/css">
   <![CDATA[
    .fil2 {fill:none}
    .fil0 {fill:#424242}
    .fil1 {fill:#424242;fill-rule:nonzero}
   ]]>
  </style>
 </defs>
 <g id="Layer_x0020_1">
  <metadata id="CorelCorpID_0Corel-Layer"/>
  <path class="fil0" d="M4.52295 3.01239c-0.214587,0.522535 -0.630929,0.989244 -1.16309,0.989244 -0.49137,0 -0.883945,-0.39737 -1.11037,-0.870701 -0.0230157,-0.0481063 -0.0438976,-0.0939528 -0.0626024,-0.138453l0.0175591 -0.164114c0.00707087,-0.0660906 0.0240748,-0.12913 0.0783386,-0.171535 0.0489843,-0.0382756 0.104406,-0.053315 0.148346,-0.102713 0.046315,-0.0520669 0.0547953,-0.115874 0.0469331,-0.179815 0.108146,-0.00782283 0.218087,-0.0123228 0.321961,-0.039689 0.133657,-0.0352126 0.237382,-0.104039 0.328335,-0.207673 0.0218976,-0.0249528 0.0292087,-0.0591378 0.0159134,-0.0904134 -0.0294213,-0.0692283 -0.102972,-0.0519055 -0.157945,-0.0400709 -0.0453268,0.00975197 -0.0903465,0.0202795 -0.136039,0.0282835 -0.00833465,0.00146063 -0.0226142,0.00377165 -0.0390748,0.00593307 0.114736,-0.0544016 0.237673,-0.0667047 0.369953,-0.0293307 0.0595354,0.016815 0.114657,0.0417205 0.169331,0.0702795 0.0416732,0.0217677 0.0965945,0.0584016 0.144913,0.0487874l0.110224 -0.0219331c0.0414606,0.0229409 0.0833701,0.0450079 0.12637,0.0652362 0.0848661,0.0399291 0.273961,0.112854 0.361394,0.0748543l0.133701 -0.0581024 -0.120047 -0.0827126c-0.0242756,-0.0167283 -0.0611102,-0.0621142 -0.0832795,-0.102291 0.0265157,0.00714173 0.0550472,0.0174528 0.0675354,0.0222441 0.127976,0.0490827 0.227693,0.112764 0.300047,0.224504 -0.0410197,0.101362 -0.0709843,0.213642 -0.0181811,0.316063 0.0221181,0.0428937 0.0547835,0.0780551 0.0793504,0.119299 0.0324409,0.0544606 0.0467362,0.113374 0.053437,0.176028l0.0169882 0.158791z"/>
  <path class="fil0" d="M1.84944 4.24659c-0.546547,0.298598 -0.620157,1.1911 -0.467736,1.72675l0.604071 0 0.0634055 -0.797307 0.0634094 0.797307 2.50207 0 0.0634055 -0.797307 0.0634055 0.797307 0.604071 0c0.152421,-0.535646 0.0788071,-1.42815 -0.467732,-1.72675 -0.224177,-0.122469 -0.4325,-0.22085 -0.631197,-0.295413 -0.259539,0.159709 -0.557181,0.254209 -0.882988,0.254209 -0.32585,0 -0.623524,-0.0945236 -0.883067,-0.254268 -0.198783,0.074622 -0.407059,0.173067 -0.631114,0.295472zm0.950311 1.30605l-0.103425 0 0 -0.389925c-0.0378268,0.0354331 -0.0823031,0.0615748 -0.133575,0.0784134l0 -0.093874c0.0268898,-0.00879134 0.0562953,-0.0255079 0.0879567,-0.0501378 0.0316693,-0.024748 0.0534094,-0.0535276 0.0650984,-0.0864528l0.0839449 0 0 0.541976zm0.156823 -0.124783l0.10015 -0.0110551c0.00251575,0.0203543 0.00892126,0.0354291 0.0192244,0.0452362 0.0103031,0.00980315 0.023878,0.0147047 0.0408425,0.0147047 0.0213661,0 0.0394567,-0.00980315 0.0544094,-0.0294094 0.0150787,-0.0195984 0.0246299,-0.060315 0.0287795,-0.122268 -0.0260157,0.0302835 -0.0585591,0.0453661 -0.0975157,0.0453661 -0.0424724,0 -0.0791693,-0.0164606 -0.109953,-0.0491378 -0.0307874,-0.0327953 -0.0462441,-0.0753898 -0.0462441,-0.127917 0,-0.0547913 0.0163386,-0.0988976 0.0488819,-0.132449 0.0324213,-0.0334252 0.0738898,-0.0502638 0.12415,-0.0502638 0.0547913,0 0.0996535,0.0212402 0.134835,0.0635866 0.035063,0.0423465 0.0526535,0.111961 0.0526535,0.208846 0,0.0987677 -0.0183425,0.169894 -0.0549094,0.213622 -0.0365669,0.0436063 -0.0841929,0.0654724 -0.142878,0.0654724 -0.0422244,0 -0.0762795,-0.011185 -0.102287,-0.0336772 -0.0260157,-0.0224921 -0.0427244,-0.0560472 -0.0501378,-0.100657zm0.234224 -0.226067c0,-0.0334213 -0.00765748,-0.0593071 -0.0229921,-0.0776535 -0.0153268,-0.0184764 -0.0331732,-0.0276457 -0.0532795,-0.0276457 -0.0190984,0 -0.0350591,0.00753937 -0.047626,0.0226181 -0.0126929,0.0150787 -0.0189764,0.0398386 -0.0189764,0.0742677 0,0.0348031 0.00691339,0.0604409 0.0206102,0.0766496 0.0137008,0.0163346 0.0309173,0.0245079 0.0515236,0.0245079 0.0198504,0 0.0366929,-0.00779528 0.0502598,-0.0235 0.0137008,-0.0157047 0.0204803,-0.0388307 0.0204803,-0.0692441zm0.533441 -0.0566732l-0.100157 0.011063c-0.00238976,-0.0206063 -0.00879528,-0.035811 -0.0190984,-0.0457402 -0.0103071,-0.00979921 -0.023752,-0.0147008 -0.0402126,-0.0147008 -0.0217362,0 -0.0402087,0.00980315 -0.0554134,0.0295315 -0.0150787,0.0196024 -0.0245118,0.0604449 -0.0285276,0.122512 0.0258819,-0.0304055 0.0577992,-0.0456102 0.0961299,-0.0456102 0.0432283,0 0.0801732,0.0164567 0.110957,0.0493819 0.0307874,0.0327992 0.0462441,0.0752756 0.0462441,0.127295 0,0.0552953 -0.0162087,0.0995276 -0.048626,0.132949 -0.0322992,0.0332992 -0.0740197,0.0500157 -0.124783,0.0500157 -0.0544134,0 -0.0992756,-0.0211102 -0.134331,-0.0634606 -0.0350591,-0.0423465 -0.0526535,-0.111713 -0.0526535,-0.208217 0,-0.0988976 0.0182205,-0.170146 0.0547874,-0.213874 0.0365709,-0.0437323 0.0840669,-0.0655984 0.1425,-0.0655984 0.0409685,0 0.0748937,0.011563 0.101787,0.0344331 0.0268898,0.0229921 0.0439843,0.0562953 0.0513976,0.10002zm-0.234484 0.225693c0,0.0335472 0.00766142,0.059563 0.0231181,0.0777795 0.0154606,0.0183504 0.0331732,0.0275197 0.0530315,0.0275197 0.0192205,0 0.0350551,-0.00753543 0.047878,-0.0224921 0.012811,-0.0149488 0.0190984,-0.0395787 0.0190984,-0.0736378 0,-0.0350551 -0.00678346,-0.060815 -0.0206142,-0.0771535 -0.013689,-0.0163386 -0.0309094,-0.0245039 -0.0515157,-0.0245039 -0.0198543,0 -0.0366929,0.00779134 -0.0503937,0.0233701 -0.0138228,0.0155866 -0.0206024,0.0387047 -0.0206024,0.0691181zm0.30485 0.0429724l0.103043 -0.0105512c0.00288583,0.0232441 0.011685,0.0417165 0.0261378,0.0552874 0.0144528,0.0136969 0.0311654,0.0204803 0.0500118,0.0204803 0.0216142,0 0.0399646,-0.00879134 0.0549134,-0.0262598 0.0149567,-0.0175906 0.0224921,-0.0441063 0.0224921,-0.0794173 0,-0.0330512 -0.00741732,-0.0579291 -0.0223661,-0.0745197 -0.0148307,-0.0165827 -0.0341811,-0.024874 -0.0579291,-0.024874 -0.0296575,0 -0.0562953,0.0131929 -0.0799173,0.0394567l-0.0839449 -0.0121929 0.0530315 -0.28085 0.273559 0 0 0.0967598 -0.19515 0 -0.0162126 0.0917283c0.023122,-0.0115591 0.046622,-0.0173425 0.070748,-0.0173425 0.0458661,0 0.0848268,0.0167205 0.116614,0.0500157 0.0319173,0.0334252 0.047878,0.0767835 0.047878,0.130059 0,0.0443583 -0.012815,0.0840669 -0.0385748,0.118874 -0.035189,0.047622 -0.0838189,0.071378 -0.14615,0.071378 -0.0498858,0 -0.0904724,-0.0133228 -0.12189,-0.0400866 -0.0314134,-0.0267677 -0.0502598,-0.0627047 -0.0562953,-0.107945z"/>
  <path class="fil1" d="M2.19787 1.76473c-0.0457992,0.136736 -0.130063,0.446256 -0.25324,0.296602 -0.00595276,-0.0132559 -0.0123661,-0.013311 -0.0151417,0.000850394 -0.0301063,0.152339 0.0862717,0.175768 0.141492,0.178492 0.0152677,0.000728346 0.0219134,0.0100709 0.015189,0.0229961 -0.0319016,0.0610984 -0.0871457,0.267713 0.0378307,0.556091 0.0399252,-0.373197 0.359524,-0.180622 0.254843,-0.517941 0.270559,-0.029815 0.484283,0.00470079 0.688709,-0.228248 0.0417165,-0.0475315 -0.466846,0.146287 -0.419272,-0.0377047 0.420898,-0.316504 0.781665,0.0150827 0.831339,0.00519291 -0.172161,-0.251693 0.0327874,-0.0700748 0.286827,0.0494449 0.0959803,0.0451535 0.249539,0.0934921 0.294705,0.0738622 -0.0542165,-0.0373543 -0.126051,-0.139181 -0.135705,-0.203291 -0.00802756,-0.053311 0.0363819,-0.0796811 0.194831,-0.0189134 0.213504,0.0818819 0.304228,0.190413 0.361535,0.293673 -0.159661,0.367425 0.0670354,0.258091 0.104591,0.609157 0.068374,-0.157768 0.0721693,-0.298594 0.0563583,-0.403811 0.0592126,0.041 0.142228,0.0742913 0.268236,0.0953386 0.0150354,0.00248425 0.0177008,-0.00334646 0.00644488,-0.013122 -0.0551654,-0.0480157 -0.223752,-0.192602 -0.223752,-0.379472 0,-0.182551 -0.0617126,-0.21563 -0.11513,-0.252878 -0.0122638,-0.0085748 -0.0114055,-0.0102756 0.00311417,-0.00584252 0.0808031,0.0247953 0.103461,0.0347835 0.183291,0.0310945l-0.284335 -0.16352c-0.748126,-0.184681 -1.52459,-0.215516 -2.28276,0.0119488z"/>
  <path class="fil0" d="M4.5343 1.39397l0.580031 0.252307c0.302047,0.183398 0.625209,0.404063 0.184539,0.275811l-0.73198 -0.213028 -0.0558031 -0.0320906 -0.011063 -0.00273228c-0.763787,-0.188547 -1.54717,-0.216224 -2.30708,0.00760236l0 -0.453118c0,-0.50052 2.34135,-0.50052 2.34135,0l0 0.165248z"/>
 </g>
 <rect class="fil2" width="6.82666" height="6.82666"/>
</svg>
