<?xml version="1.0" encoding="UTF-8"?>
<!DOCTYPE svg PUBLIC "-//W3C//DTD SVG 1.1//EN" "http://www.w3.org/Graphics/SVG/1.1/DTD/svg11.dtd">
<!-- Creator: CorelDRAW X5 -->
<svg xmlns="http://www.w3.org/2000/svg" xml:space="preserve" width="2048px" height="2048px" style="shape-rendering:geometricPrecision; text-rendering:geometricPrecision; image-rendering:optimizeQuality; fill-rule:evenodd; clip-rule:evenodd"
viewBox="0 0 2048 2048"
 xmlns:xlink="http://www.w3.org/1999/xlink">
 <defs>
  <style type="text/css">
   <![CDATA[
    .fil2 {fill:none}
    .fil0 {fill:#424242}
    .fil1 {fill:#424242;fill-rule:nonzero}
   ]]>
  </style>
 </defs>
 <g id="Layer_x0020_1">
  <metadata id="CorelCorpID_0Corel-Layer"/>
  <path class="fil0" d="M1117 640c212,0 384,172 384,384 0,212 -172,384 -384,384 -212,0 -384,-172 -384,-384 0,-212 172,-384 384,-384zm3 320c35,0 64,29 64,64 0,35 -29,64 -64,64 -35,0 -64,-29 -64,-64 0,-35 29,-64 64,-64zm-24 -203c17,-3 34,8 37,25 3,17 -8,34 -25,37 -72,14 -122,41 -152,82 -29,41 -39,97 -28,169 2,17 -10,34 -27,36 -17,2 -34,-10 -36,-27 -13,-89 0,-160 40,-215 39,-55 103,-91 192,-108z"/>
  <path class="fil1" d="M1132 634c171,0 306,35 410,94 119,68 199,167 248,283l5 12 -5 12c-49,115 -128,215 -248,283 -104,59 -239,94 -410,94 -186,0 -385,-41 -548,-110 -156,-66 -279,-159 -325,-267l-5 -12 5 -12c46,-108 169,-201 325,-267 163,-69 362,-110 548,-110zm379 150c-95,-54 -219,-86 -379,-86 -178,0 -368,39 -523,105 -136,57 -242,134 -286,221 43,87 150,163 286,221 155,66 346,105 523,105 160,0 284,-32 379,-86 102,-58 171,-142 215,-240 -44,-98 -113,-182 -215,-240z"/>
  <rect class="fil2" width="2048" height="2048"/>
 </g>
</svg>
