<?xml version="1.0" encoding="UTF-8"?>
<!DOCTYPE svg PUBLIC "-//W3C//DTD SVG 1.1//EN" "http://www.w3.org/Graphics/SVG/1.1/DTD/svg11.dtd">
<!-- Creator: CorelDRAW -->
<svg xmlns="http://www.w3.org/2000/svg" xml:space="preserve" width="2048px" height="2048px" style="shape-rendering:geometricPrecision; text-rendering:geometricPrecision; image-rendering:optimizeQuality; fill-rule:evenodd; clip-rule:evenodd"
viewBox="0 0 2048 2048"
 xmlns:xlink="http://www.w3.org/1999/xlink">
 <defs>
  <style type="text/css">
   <![CDATA[
    .fil0 {fill:none}
    .fil2 {fill:#424242}
    .fil1 {fill:#424242;fill-rule:nonzero}
   ]]>
  </style>
 </defs>
 <g id="Layer_x0020_1">
  <metadata id="CorelCorpID_0Corel-Layer"/>
  <rect class="fil0" width="2048" height="2048"/>
  <rect class="fil0" x="255.999" y="255.999" width="1536" height="1536"/>
  <rect class="fil0" x="256" y="256" width="1536" height="1536"/>
  <path class="fil1" d="M1017.18 1434.27c0,13.9358 8.99646,28.8473 22.6099,40.7162 14.5453,12.6803 33.7607,21.1406 53.0469,21.1406l462.238 0 16.1256 4.50118 111.372 65.4603 -7.52127 -30.3355 -9.8256 -39.626 40.826 0 6.78426 0c14.687,0 25.3701,-5.49685 32.4922,-13.9406 9.9756,-11.8264 14.6752,-29.6221 14.6752,-47.9162l0 -375.718c0,-16.161 -3.70866,-29.276 -11.5642,-37.2733 -7.00985,-7.13741 -18.6673,-11.3303 -35.6032,-11.3303l0 -64.0016c35.3398,0 62.1815,11.315 81.104,30.5823 20.4248,20.7945 30.065,49.4398 30.065,82.0229l0 375.718c0,32.1851 -9.58229,65.0504 -29.9256,89.1674 -12.463,14.7756 -28.5177,26.1213 -48.3485,32.067l17.0776 68.8749 18.2339 73.5402 -65.3599 -38.4154 -169.075 -99.3757 -453.77 0c-35.1225,0 -69.4914,-14.8642 -95.0469,-37.1422 -26.8618,-23.4201 -44.6115,-55.6595 -44.6115,-88.7162l64.0016 0z"/>
  <path class="fil2" d="M447.395 408.76l1011.35 0c52.0784,0 101.979,22.5673 139.035,56.2028 38.7508,35.1768 64.0276,83.1213 64.0276,131.075l0 612.776c0,47.7107 -24.3225,88.2072 -62.0953,116.966 -37.389,28.467 -88.3843,45.2788 -140.967,45.2788l-731.419 0 -339.351 199.563 -47.0008 -35.6244 45.1937 -171.614c-37.2827,-8.4189 -73.1493,-24.0921 -101.163,-45.3 -36.7122,-27.7949 -61.0087,-65.1603 -61.0087,-109.269l0 -612.776c0,-47.8512 29.7579,-94.9642 72.6721,-129.778 42.2528,-34.2792 98.2725,-57.4997 150.724,-57.4997zm832.606 327.239c53.0197,0 96.0001,42.9803 96.0001,96.0001 0,53.0197 -42.9803,96.0001 -96.0001,96.0001 -53.0197,0 -96.0001,-42.9803 -96.0001,-96.0001 0,-53.0197 42.9803,-96.0001 96.0001,-96.0001zm-320 0c53.0197,0 96.0001,42.9803 96.0001,96.0001 0,53.0197 -42.9803,96.0001 -96.0001,96.0001 -53.0197,0 -96.0001,-42.9803 -96.0001,-96.0001 0,-53.0197 42.9803,-96.0001 96.0001,-96.0001zm-320 0c53.0197,0 96.0001,42.9803 96.0001,96.0001 0,53.0197 -42.9803,96.0001 -96.0001,96.0001 -53.0197,0 -96.0001,-42.9803 -96.0001,-96.0001 0,-53.0197 42.9803,-96.0001 96.0001,-96.0001z"/>
 </g>
</svg>
