<?xml version="1.0" encoding="UTF-8"?>
<!DOCTYPE svg PUBLIC "-//W3C//DTD SVG 1.1//EN" "http://www.w3.org/Graphics/SVG/1.1/DTD/svg11.dtd">
<!-- Creator: CorelDRAW -->
<svg xmlns="http://www.w3.org/2000/svg" xml:space="preserve" width="2048px" height="2048px" style="shape-rendering:geometricPrecision; text-rendering:geometricPrecision; image-rendering:optimizeQuality; fill-rule:evenodd; clip-rule:evenodd"
viewBox="0 0 2048 2048"
 xmlns:xlink="http://www.w3.org/1999/xlink">
 <defs>
  <style type="text/css">
   <![CDATA[
    .fil1 {fill:none}
    .fil2 {fill:#4B4B4D;fill-rule:nonzero}
    .fil0 {fill:#212121;fill-rule:nonzero}
   ]]>
  </style>
 </defs>
 <g id="Layer_x0020_1">
  <metadata id="CorelCorpID_0Corel-Layer"/>
  <path class="fil0" d="M1508.1 539.896c-63.2481,-63.2481 -138.605,-114.126 -222.173,-148.739 -80.5323,-33.3555 -168.995,-51.7654 -261.931,-51.7654 -92.9351,0 -181.394,18.4099 -261.926,51.7654 -83.5642,34.6111 -158.921,85.4906 -222.169,148.739 -63.2504,63.2504 -114.131,138.608 -148.745,222.176 -33.3567,80.5335 -51.7678,168.992 -51.7678,261.927 0,92.9304 18.4122,181.388 51.7689,261.92 34.6134,83.5666 85.4953,158.927 148.743,222.175 63.2481,63.2481 138.608,114.13 222.175,148.743 80.5323,33.3567 168.99,51.7689 261.92,51.7689 92.9351,0 181.394,-18.411 261.927,-51.7678 83.5678,-34.6134 158.926,-85.4942 222.176,-148.745 63.2481,-63.2481 114.128,-138.605 148.739,-222.169 33.3555,-80.5323 51.7654,-168.991 51.7654,-261.926 0,-92.9363 -18.4099,-181.399 -51.7654,-261.931 -34.6122,-83.5678 -85.4906,-158.925 -148.739,-222.173zm-197.922 -207.74c91.8166,38.0292 174.291,93.6072 243.173,162.489 68.8819,68.8819 124.46,151.356 162.489,243.173 36.5788,88.3135 56.7662,184.982 56.7662,286.181 0,101.199 -20.1886,197.866 -56.7662,286.177 -38.028,91.8142 -93.6072,174.287 -162.489,243.169 -68.8831,68.8831 -151.357,124.463 -243.176,162.495 -88.3123,36.5788 -184.977,56.7685 -286.178,56.7685 -101.195,0 -197.86,-20.191 -286.171,-56.7697 -91.8178,-38.0303 -174.293,-93.6119 -243.175,-162.494 -68.8819,-68.8819 -124.463,-151.357 -162.494,-243.175 -36.5788,-88.3111 -56.7697,-184.976 -56.7697,-286.171 0,-101.2 20.1898,-197.866 56.7685,-286.178 38.0315,-91.819 93.6119,-174.293 162.495,-243.176 68.8819,-68.8819 151.355,-124.461 243.169,-162.489 88.3111,-36.5776 184.977,-56.7662 286.177,-56.7662 101.199,0 197.868,20.1874 286.181,56.7662z"/>
  <rect class="fil1" width="2048" height="2048"/>
  <rect class="fil1" x="255.999" y="255.999" width="1536" height="1536"/>
  <rect class="fil1" x="255.999" y="255.999" width="1536" height="1536"/>
  <g id="_561013704">
   <rect id="_561013872" class="fil1" x="255.999" y="255.999" width="1536" height="1536"/>
   <path id="_561013776" class="fil2" d="M1024 255.999c212.047,0 404.077,85.9725 543.052,224.948 138.976,138.976 224.948,331.005 224.948,543.052 0,212.064 -85.9725,404.068 -224.948,543.044 -138.976,138.976 -330.989,224.956 -543.052,224.956 -212.064,0 -404.068,-85.9808 -543.044,-224.956 -138.976,-138.976 -224.956,-330.981 -224.956,-543.044 0,-212.064 85.9808,-404.077 224.956,-543.052 138.976,-138.976 330.981,-224.948 543.044,-224.948zm481.213 286.787c-123.141,-123.141 -293.283,-199.311 -481.213,-199.311 -187.93,0 -358.064,76.1705 -481.205,199.311 -123.141,123.141 -199.319,293.283 -199.319,481.213 0,187.922 76.1788,358.064 199.319,481.205 123.141,123.141 293.283,199.319 481.205,199.319 187.93,0 358.073,-76.1788 481.213,-199.319 123.141,-123.141 199.311,-293.275 199.311,-481.205 0,-187.93 -76.1705,-358.073 -199.311,-481.213zm-254.603 735.61c73.1044,0 132.389,-59.1934 132.389,-132.323 0,-73.1127 -59.2843,-132.397 -132.389,-132.397 -72.4016,0 -131.141,58.2107 -132.281,130.397 41.7874,26.1248 71.0623,70.4422 76.402,121.834 16.9677,7.95827 35.8866,12.4878 55.8792,12.4878zm-451.204 -264.719c-73.1859,0 -132.405,59.2843 -132.405,132.397 0,73.063 59.2193,132.323 132.405,132.323 25.8532,0 49.93,-7.54607 70.369,-20.4473 6.47953,-42.2918 29.1425,-79.2697 61.5662,-104.445 0.124016,-2.47914 0.388583,-4.94292 0.388583,-7.43032 0,-73.1127 -59.2855,-132.397 -132.324,-132.397zm537.209 -2.80158c41.713,26.1248 70.9713,70.4422 76.3276,121.834 16.9677,7.95119 35.8949,12.4878 55.9453,12.4878 73.1127,0 132.331,-59.2099 132.331,-132.323 0,-73.1127 -59.2182,-132.323 -132.331,-132.323 -72.4595,-0.0744095 -131.198,58.128 -132.273,130.323zm-172.565 271.794c0,73.1292 -59.2843,132.413 -132.405,132.413 -73.1209,0 -132.389,-59.2843 -132.389,-132.413 0,-73.0961 59.2678,-132.323 132.389,-132.323 73.1209,0 132.405,59.2264 132.405,132.323zm142.761 4.76103l-111.487 0c-1.19764,44.5642 -20.2488,84.7489 -50.3256,113.61 83.0056,24.737 143.828,101.726 143.828,192.757l0 15.587c67.5839,-31.3488 128.671,-74.3186 180.69,-126.339 2.25591,-2.25591 4.49646,-4.53662 6.71103,-6.82678l0 -19.298c0,-93.4359 -75.9886,-169.491 -169.416,-169.491zm218.214 -133.191l-111.487 0c-1.19055,44.6303 -20.2417,84.815 -50.3174,113.602 77.641,23.126 135.794,91.9737 143.051,175.135 59.8796,-71.1532 104.304,-155.753 128.091,-248.635 -29.5394,-25.0016 -67.715,-40.102 -109.337,-40.102zm-606.793 246.801c-29.9433,-28.7292 -48.9118,-68.6327 -50.3256,-112.941 -4.08189,-0.338977 -8.22284,-0.669686 -12.4299,-0.669686l-112.289 0c-93.4359,0 -169.482,76.0548 -169.482,169.491l0 21.1996 4.85197 4.9252c55.8874,55.8804 122.239,101.313 195.855,133.116l0 -22.3642c0,-90.9485 60.7406,-168.02 143.819,-192.757zm169.557 23.0681l-112.337 0c-93.4371,0 -169.507,76.0548 -169.507,169.482l0 35.1839c67.9548,25.0843 141.422,38.7874 218.088,38.7874 82.3772,0 161.052,-15.8197 233.172,-44.5654l0 -29.4059c0.0744095,-93.4855 -75.9804,-169.482 -169.416,-169.482zm-508.603 -274.63c20.0421,0 38.9611,-4.61221 55.9371,-12.5539 5.3563,-51.4004 34.6146,-95.7178 76.3276,-121.844 -1.08307,-72.1772 -59.8217,-130.396 -132.265,-130.396 -73.1209,0 -132.331,59.2843 -132.331,132.397 0,73.1127 59.2099,132.397 132.331,132.397zm105.659 122.636c-30.1335,-28.8532 -49.1185,-69.0296 -50.3256,-113.668l-111.487 0c-41.2252,0 -79.0382,14.7851 -108.428,39.3248 24.0343,91.7079 68.2359,175.267 127.562,245.635 8.67048,-81.5009 66.228,-148.588 142.678,-171.292z"/>
  </g>
 </g>
</svg>
